<svg width="375" height="342" viewBox="0 0 375 342" fill="none" xmlns="http://www.w3.org/2000/svg">
<path d="M105.937 164.754C157.502 154.269 165.618 140.924 191.878 115.903C210.976 97.705 243.011 89.1947 279.013 111.732C314.225 133.775 319 175.477 319 207.051C319 250.687 282.594 286.881 230.074 273.775C169.456 258.648 142.939 264.243 111.308 273.775C79.6769 283.307 27.1573 284.499 17.6083 241.009C8.05922 197.52 41.4809 177.86 105.937 164.754Z" fill="#EBF3FC" style="fill:#EBF3FC;fill:color(display-p3 0.9216 0.9529 0.9882);fill-opacity:1;"/>
<g clip-path="url(#clip0_3814_9523)">
<path d="M140.069 210.358C140.069 210.712 140.246 211.066 140.246 211.42C140.069 211.066 140.069 210.535 140.069 210.358Z" fill="#EFBF9A" style="fill:#EFBF9A;fill:color(display-p3 0.9375 0.7472 0.6055);fill-opacity:1;"/>
<path d="M140.069 210.359C139.892 209.121 139.892 209.651 140.069 210.359V210.359Z" fill="#EFBF9A" style="fill:#EFBF9A;fill:color(display-p3 0.9375 0.7472 0.6055);fill-opacity:1;"/>
<path d="M117.604 148.094C118.666 147.032 122.734 139.957 122.734 139.957C122.734 139.957 120.435 136.95 118.843 135.712C116.366 137.481 114.067 142.964 112.475 147.209L114.42 148.094C114.42 148.094 116.366 149.332 117.604 148.094Z" fill="#F2C3A0" style="fill:#F2C3A0;fill:color(display-p3 0.9490 0.7647 0.6275);fill-opacity:1;"/>
<path d="M135.647 262.717C130.694 262.717 126.802 258.118 126.802 252.458V195.854C122.026 198.33 117.781 200.983 117.781 200.983V172.858C117.781 172.858 124.326 163.129 126.802 155.169V144.91C126.095 141.372 124.503 137.834 121.849 135.712C120.965 135.004 119.904 135.004 119.019 135.712C120.788 136.95 122.911 140.134 122.911 140.134C122.911 140.134 118.665 147.033 117.604 148.094C116.543 149.155 114.42 148.094 114.42 148.094L112.474 147.21C111.413 150.04 111.767 149.509 111.413 150.04C107.698 157.823 99.9153 156.761 99.3847 165.429C98.6771 176.042 87.3563 194.085 90.0096 203.283C92.486 211.95 90.7172 221.149 90.5403 229.993C90.5403 232.469 88.5945 235.83 88.7714 237.599C84.5261 242.552 61 257.234 61 257.234L88.5945 300.925C88.5945 300.925 116.366 279.699 129.632 277.222C149.798 273.154 154.751 267.139 159.88 262.717H135.647Z" fill="url(#paint0_linear_3814_9523)" style=""/>
</g>
<rect x="128.181" y="77" width="113.188" height="217.551" rx="14.065" fill="white" style="fill:white;fill-opacity:1;"/>
<rect x="128.181" y="77" width="113.188" height="217.551" rx="14.065" stroke="#2772C7" style="stroke:#2772C7;stroke:color(display-p3 0.1529 0.4471 0.7804);stroke-opacity:1;" stroke-width="4"/>
<circle cx="184.87" cy="271.5" r="9.5" transform="rotate(90 184.87 271.5)" fill="white" style="fill:white;fill-opacity:1;"/>
<g clip-path="url(#clip1_3814_9523)">
<rect x="143" y="112.181" width="84" height="84" rx="42" fill="#EBF3FC" style="fill:#EBF3FC;fill:color(display-p3 0.9216 0.9529 0.9882);fill-opacity:1;"/>
<path d="M174.664 185.872C178.92 178.576 174.664 157.6 174.664 157.6L194.546 160.12C194.546 166.303 193.816 181.008 198.68 186.784C198.68 193.776 192.809 195.6 188.04 195.6C180.649 195.6 174.664 191.648 174.664 185.872Z" fill="#F2D1BA" style="fill:#F2D1BA;fill:color(display-p3 0.9490 0.8196 0.7294);fill-opacity:1;"/>
<g style="mix-blend-mode:multiply" opacity="0.6">
<path d="M174.999 161.357L174.968 161.248C174.968 161.248 189.636 169.676 194.5 171.5C194.5 173.324 195.336 178.272 195.336 178.272C195.505 178.932 191.08 178.184 188.952 177.664C178.683 174.342 176.572 166.902 174.999 161.357Z" fill="#A06B6B" style="fill:#A06B6B;fill:color(display-p3 0.6292 0.4194 0.4194);fill-opacity:1;"/>
</g>
<path d="M214.368 170.039C218.65 161.343 207.984 149.319 201.078 144.224C201.078 160.392 198.936 167.024 194.376 172.496C195.182 173.685 199.49 173.945 201.976 173.945C203.192 172.496 204.712 170.368 205.624 163.072C206.232 166.72 204.992 171.737 203.496 173.945C207.121 173.945 212.612 173.605 214.368 170.039Z" fill="#C13C2B" style="fill:#C13C2B;fill:color(display-p3 0.7569 0.2353 0.1686);fill-opacity:1;"/>
<path d="M190 175.5C192 175.74 204 171 204.782 138.954C201.414 122.829 170.977 136.354 171.509 147.922C172.04 159.489 177.5 174 190 175.5Z" fill="#F2D1BA" style="fill:#F2D1BA;fill:color(display-p3 0.9490 0.8196 0.7294);fill-opacity:1;"/>
<path d="M175.758 160.684L173.909 152.279C168.194 148.871 166.513 152.96 167.521 156.368C168.53 159.776 173.461 160.968 175.758 160.684Z" fill="#F2D1BA" style="fill:#F2D1BA;fill:color(display-p3 0.9490 0.8196 0.7294);fill-opacity:1;"/>
<g style="mix-blend-mode:multiply">
<path d="M169.07 154.087C170.101 153.903 172.397 154.123 173.326 156.469" stroke="#A06B6B" style="stroke:#A06B6B;stroke:color(display-p3 0.6292 0.4194 0.4194);stroke-opacity:1;" stroke-width="1.216" stroke-linecap="round"/>
</g>
<path d="M175.272 158.85C175.272 157.665 176.488 155.168 174.664 148.784C175.028 148.784 175.75 148.838 176.488 148.904C177.096 146.96 178.92 144.633 179.224 138.144C180.136 144.224 178.92 147.872 178.312 148.904C187 147.5 194 147 200.5 140C204.476 148.376 203.5 145.744 204.5 148.904C209.052 146.534 215.013 123.483 186.52 124.16C169.192 124.572 167.986 138.297 167.368 145.744C152.542 151.52 153.922 162.297 153.08 170.976C154.345 171.269 157.686 171.669 158.856 171.888C158.856 170.064 158.856 168.544 161.592 164.288C160.072 168.848 160.072 171.28 160.68 172.192C166.003 172.855 171.192 173.068 176.184 172.8C176.51 164.848 175.576 162.464 174.664 160.64C168.28 160.336 167.537 155.745 167.368 154.56C167.368 152.432 168.584 150 171.928 151.52C174.626 155.921 173.755 154.288 175.272 158.85Z" fill="#C13C2B" style="fill:#C13C2B;fill:color(display-p3 0.7569 0.2353 0.1686);fill-opacity:1;"/>
<circle cx="0.608" cy="0.608" r="0.608" transform="matrix(-1 8.74228e-08 8.74228e-08 1 198.68 186.176)" fill="#FF0101" style="fill:#FF0101;fill:color(display-p3 1.0000 0.0039 0.0039);fill-opacity:1;"/>
<circle cx="0.608" cy="0.608" r="0.608" transform="matrix(-1 8.74228e-08 8.74228e-08 1 175.88 184.96)" fill="#FF0101" style="fill:#FF0101;fill:color(display-p3 1.0000 0.0039 0.0039);fill-opacity:1;"/>
<g style="mix-blend-mode:multiply">
<path d="M191.5 157C191.789 158.579 191.446 158.016 192.683 160.159C193.306 161.239 193.683 164 190.5 163" stroke="#A06B6B" style="stroke:#A06B6B;stroke:color(display-p3 0.6292 0.4194 0.4194);stroke-opacity:1;" stroke-width="1.216" stroke-linecap="round"/>
</g>
<path d="M192.627 167.158C190.85 167.616 189.909 167.711 187.781 166.799" stroke="#E44545" style="stroke:#E44545;stroke:color(display-p3 0.8958 0.2725 0.2725);stroke-opacity:1;" stroke-width="1.216" stroke-linecap="round"/>
<path d="M187.56 150.412C187.56 150.412 183.9 149.196 180.556 150.412" stroke="black" style="stroke:black;stroke-opacity:1;" stroke-width="1.216" stroke-linecap="round"/>
<path d="M201.936 150.48C201.936 150.48 198.759 149.112 195.856 150.48" stroke="black" style="stroke:black;stroke-opacity:1;" stroke-width="1.216" stroke-linecap="round"/>
<ellipse cx="1.36777" cy="1.82369" rx="1.36777" ry="1.82369" transform="matrix(-0.99879 -0.0491822 -0.0491822 0.99879 185.672 152.7)" fill="black" style="fill:black;fill-opacity:1;"/>
<ellipse cx="1.36777" cy="1.82369" rx="1.36777" ry="1.82369" transform="matrix(-0.999877 0.0156609 0.0156609 0.999877 197.932 153.61)" fill="black" style="fill:black;fill-opacity:1;"/>
<g clip-path="url(#clip2_3814_9523)">
<path d="M229.973 225.755C229.126 215.356 227.706 200.314 219.499 192.186C214.325 188.312 209.92 186.513 203.485 186.089C202.051 191.462 212.353 216.529 211.571 225.755C217.455 225.755 224.197 225.755 229.973 225.755Z" fill="#597EF7" style="fill:#597EF7;fill:color(display-p3 0.3490 0.4941 0.9686);fill-opacity:1;"/>
<path d="M214.718 273.383C205.976 249.976 216.008 236.296 217.832 221.096C219.845 204.325 213.606 202.533 208.408 187.048C206.279 186.333 209.703 186.357 200.2 185.527C199.76 186.516 197.464 180.36 196.552 178.536C191.08 178.211 179.043 177.624 174.968 177.624C174.968 180.38 170.711 186.152 170.712 184.94C164.632 185.832 162.111 186.443 157.64 188.568C155.949 201.87 156.452 208.519 157.032 219.88C158.552 229.912 162.668 247.189 161.511 267.304L160.984 273.383L214.718 273.383Z" fill="#597EF7" style="fill:#597EF7;fill:color(display-p3 0.3490 0.4941 0.9686);fill-opacity:1;"/>
<path d="M129.368 216.231C136.056 208.328 145.862 194.238 150.119 191.051C155.292 187.177 159.717 186.12 166.152 185.695C166.993 188.845 163.247 208.665 158.552 218.664C154.904 222.312 151.864 224.744 150.119 226.568C142.215 224.744 136.968 220.184 129.368 216.231Z" fill="#597EF7" style="fill:#597EF7;fill:color(display-p3 0.3490 0.4941 0.9686);fill-opacity:1;"/>
<mask id="mask0_3814_9523" style="mask-type:alpha" maskUnits="userSpaceOnUse" x="129" y="177" width="101" height="97">
<path d="M229.973 225.755C229.126 215.356 227.706 200.314 219.499 192.186C214.325 188.312 209.92 186.513 203.485 186.089C202.051 191.462 212.353 216.529 211.571 225.755C217.455 225.755 224.197 225.755 229.973 225.755Z" fill="#597EF7" style="fill:#597EF7;fill:color(display-p3 0.3490 0.4941 0.9686);fill-opacity:1;"/>
<path d="M214.718 273.383C205.976 249.976 216.008 236.296 217.832 221.096C219.845 204.325 213.606 202.533 208.408 187.048C206.279 186.333 209.703 186.357 200.2 185.527C199.76 186.516 197.464 180.36 196.552 178.536C191.08 178.211 179.043 177.624 174.968 177.624C174.968 180.38 170.711 186.152 170.712 184.94C164.632 185.832 162.111 186.443 157.64 188.568C155.949 201.87 156.452 208.519 157.032 219.88C159.464 234.168 162.668 247.189 161.511 267.304L160.984 273.383L214.718 273.383Z" fill="#597EF7" style="fill:#597EF7;fill:color(display-p3 0.3490 0.4941 0.9686);fill-opacity:1;"/>
<path d="M129.368 216.231C136.056 208.328 145.862 194.238 150.119 191.051C155.292 187.177 159.717 186.12 166.152 185.695C166.993 188.845 163.247 208.665 158.552 218.664C154.904 222.312 151.864 224.744 150.119 226.568C142.215 224.744 136.968 220.184 129.368 216.231Z" fill="#597EF7" style="fill:#597EF7;fill:color(display-p3 0.3490 0.4941 0.9686);fill-opacity:1;"/>
</mask>
<g mask="url(#mask0_3814_9523)">
<path d="M164.632 264.872C164.632 267.39 166.674 269.432 169.192 269.432C171.71 269.432 173.752 267.39 173.752 264.872C173.752 262.353 171.71 260.312 169.192 260.312C166.674 260.312 164.632 262.353 164.632 264.872Z" fill="#698CFE" style="fill:#698CFE;fill:color(display-p3 0.4108 0.5478 0.9958);fill-opacity:1;"/>
<path d="M176.184 248.456C176.184 251.981 179.042 254.84 182.568 254.84C186.094 254.84 188.952 251.981 188.952 248.456C188.952 244.93 186.094 242.072 182.568 242.072C179.042 242.072 176.184 244.93 176.184 248.456Z" fill="#698CFE" style="fill:#698CFE;fill:color(display-p3 0.4108 0.5478 0.9958);fill-opacity:1;"/>
<path d="M198.68 258.792C198.68 260.638 200.177 262.136 202.024 262.136C203.871 262.136 205.368 260.638 205.368 258.792C205.368 256.945 203.871 255.448 202.024 255.448C200.177 255.448 198.68 256.945 198.68 258.792Z" fill="#698CFE" style="fill:#698CFE;fill:color(display-p3 0.4108 0.5478 0.9958);fill-opacity:1;"/>
<path d="M199.288 211.064C199.288 213.75 201.466 215.928 204.152 215.928C206.838 215.928 209.016 213.75 209.016 211.064C209.016 208.377 206.838 206.2 204.152 206.2C201.466 206.2 199.288 208.377 199.288 211.064Z" fill="#698CFE" style="fill:#698CFE;fill:color(display-p3 0.4108 0.5478 0.9958);fill-opacity:1;"/>
<path d="M140.92 197.384C140.92 202.253 144.867 206.2 149.736 206.2C154.605 206.2 158.552 202.253 158.552 197.384C158.552 192.515 154.605 188.568 149.736 188.568C144.867 188.568 140.92 192.515 140.92 197.384Z" fill="#698CFE" style="fill:#698CFE;fill:color(display-p3 0.4108 0.5478 0.9958);fill-opacity:1;"/>
<path d="M139.704 224.744C139.704 229.613 143.651 233.56 148.52 233.56C153.389 233.56 157.336 229.613 157.336 224.744C157.336 219.875 153.389 215.928 148.52 215.928C143.651 215.928 139.704 219.875 139.704 224.744Z" fill="#698CFE" style="fill:#698CFE;fill:color(display-p3 0.4108 0.5478 0.9958);fill-opacity:1;"/>
<path d="M156.12 233.864C156.12 238.733 160.067 242.68 164.936 242.68C169.805 242.68 173.752 238.733 173.752 233.864C173.752 228.995 169.805 225.048 164.936 225.048C160.067 225.048 156.12 228.995 156.12 233.864Z" fill="#698CFE" style="fill:#698CFE;fill:color(display-p3 0.4108 0.5478 0.9958);fill-opacity:1;"/>
<path d="M204.76 237.208C204.76 240.23 207.21 242.68 210.232 242.68C213.254 242.68 215.704 240.23 215.704 237.208C215.704 234.186 213.254 231.736 210.232 231.736C207.21 231.736 204.76 234.186 204.76 237.208Z" fill="#698CFE" style="fill:#698CFE;fill:color(display-p3 0.4108 0.5478 0.9958);fill-opacity:1;"/>
<path d="M217.528 204.376C217.528 209.412 221.611 213.496 226.648 213.496C231.685 213.496 235.768 209.412 235.768 204.376C235.768 199.339 231.685 195.256 226.648 195.256C221.611 195.256 217.528 199.339 217.528 204.376Z" fill="#698CFE" style="fill:#698CFE;fill:color(display-p3 0.4108 0.5478 0.9958);fill-opacity:1;"/>
</g>
<path d="M177.4 186.136L193.208 189.48" stroke="#294AB8" style="stroke:#294AB8;stroke:color(display-p3 0.1592 0.2907 0.7208);stroke-opacity:1;" stroke-width="1.216"/>
<path d="M173.752 188.568L182.872 191.608" stroke="#294AB8" style="stroke:#294AB8;stroke:color(display-p3 0.1592 0.2907 0.7208);stroke-opacity:1;" stroke-width="1.216"/>
<path d="M201.72 186.136C202.328 191.81 198.69 206.078 185.557 204.376C172.425 202.673 168.888 191 168.584 185.528" stroke="white" style="stroke:white;stroke-opacity:1;" stroke-width="1.216" stroke-linecap="round"/>
<path d="M216.312 260.008C210.536 222.92 229.688 226.264 209.928 186.744" stroke="#F48C1C" style="stroke:#F48C1C;stroke:color(display-p3 0.9569 0.5490 0.1098);stroke-opacity:1;" stroke-width="2.432" stroke-linecap="round"/>
</g>
</g>
<path d="M227.996 145.21C226.674 139.161 224.075 133.464 220.374 128.5C216.673 123.535 211.955 119.418 206.535 116.424C201.115 113.43 195.119 111.627 188.946 111.137C182.774 110.646 176.567 111.479 170.743 113.58C164.918 115.68 159.609 119 155.17 123.318C150.731 127.635 147.266 132.85 145.004 138.615C142.743 144.379 141.739 150.56 142.058 156.743C142.377 162.927 144.013 168.971 146.856 174.472L149.354 173.181C146.695 168.036 145.165 162.382 144.866 156.598C144.568 150.814 145.507 145.033 147.622 139.642C149.737 134.25 152.979 129.372 157.131 125.334C161.283 121.295 166.249 118.19 171.697 116.225C177.145 114.26 182.95 113.481 188.723 113.94C194.497 114.399 200.106 116.085 205.175 118.886C210.245 121.687 214.658 125.537 218.12 130.181C221.582 134.824 224.012 140.153 225.249 145.811L227.996 145.21Z" fill="#2772C7" style="fill:#2772C7;fill:color(display-p3 0.1529 0.4471 0.7804);fill-opacity:1;"/>
<g clip-path="url(#clip3_3814_9523)">
<path d="M242.384 230.478C242.384 230.478 233.586 231.219 233.27 233.552C232.967 235.885 233.635 240.017 241.947 240.819H250.55C250.55 240.819 247.974 233.673 248.096 233.43C248.229 233.187 242.384 230.478 242.384 230.478Z" fill="#EFBF9A" style="fill:#EFBF9A;fill:color(display-p3 0.9373 0.7490 0.6039);fill-opacity:1;"/>
<path d="M228.251 265.365C227.06 265.997 226.647 267.504 227.315 268.67C231.362 275.658 247.475 303.424 248.921 305.672C250.586 308.261 254.645 314.349 268.121 317.496C281.597 320.631 287.139 329.684 287.139 329.684H328.71C328.71 329.684 318.928 314.166 310.798 273.92C310.798 273.92 304.516 240.49 292.704 241.608C292.704 241.608 285.498 234.038 278.486 235.52C278.486 235.52 265.192 227.585 257.622 227.585L239.431 206.077C237.632 203.95 234.449 203.537 232.237 205.226C231.532 205.773 230.985 206.49 230.839 207.438C230.28 210.949 234.898 219.82 242.286 230.526C249.675 241.232 267.951 275.22 260.016 290.179C260.016 290.179 251.886 284.091 244.875 274.297C238.993 266.094 232.079 263.336 228.251 265.365Z" fill="url(#paint1_linear_3814_9523)" style=""/>
<path d="M257.683 227.585C260.101 229.651 262.361 231.887 264.488 234.245C266.615 236.553 268.656 239.093 270.503 241.657C272.204 244.015 274.197 247.186 275.473 249.823C277.199 253.311 277.964 255.899 278.475 258.876L278.426 258.888C277.77 255.802 276.555 252.849 275.096 250.03C274.088 248.049 272.107 244.768 270.066 241.985C268.231 239.409 266.238 236.942 264.172 234.536C262.216 232.288 259.773 229.651 257.659 227.634L257.683 227.585Z" fill="#C58B5E" style="fill:#C58B5E;fill:color(display-p3 0.7708 0.5441 0.3694);fill-opacity:1;"/>
<path d="M278.366 235.459C280.334 236.468 282.084 237.866 283.627 239.445C286.532 242.374 288.925 246.396 290.116 250.929C290.59 252.934 290.906 254.295 290.955 257.478H290.894C290.712 255.303 290.311 253.14 289.691 251.05C288.354 246.7 286.252 242.981 283.299 239.737C281.914 238.218 280.091 236.577 278.329 235.496L278.366 235.459Z" fill="#C58B5E" style="fill:#C58B5E;fill:color(display-p3 0.7708 0.5441 0.3694);fill-opacity:1;"/>
<path d="M292.559 241.463C294.297 242.775 296.046 245.096 296.897 246.664C298.866 250.042 299.801 253.639 299.959 257.479L299.899 257.491C299.157 253.213 298.428 250.783 296.435 246.919C295.779 245.619 294.102 243.067 292.522 241.499L292.559 241.463Z" fill="#C58B5E" style="fill:#C58B5E;fill:color(display-p3 0.7708 0.5441 0.3694);fill-opacity:1;"/>
<path d="M236.637 273.969C237.001 272.097 234.826 269.132 232.845 266.896C231.618 265.499 229.674 264.976 227.96 265.56C227 266.264 226.709 267.613 227.328 268.683C228.422 270.554 230.378 273.932 232.687 277.918C234.413 277.031 236.296 275.694 236.637 273.969Z" fill="#C58B5E" style="fill:#C58B5E;fill:color(display-p3 0.7708 0.5441 0.3694);fill-opacity:1;"/>
<path d="M238.386 214.51C239.431 214.304 244.207 212.712 243.915 211.849L239.213 206.296C238.277 205.19 236.977 204.546 235.628 204.424C235.616 204.424 235.616 204.424 235.603 204.424C235.567 204.424 235.482 204.412 235.36 204.412C234.729 204.412 233.173 204.594 232.833 206.296C232.505 207.985 235.287 212.08 236.515 213.781C236.94 214.377 237.681 214.656 238.386 214.51Z" fill="#C58B5E" style="fill:#C58B5E;fill:color(display-p3 0.7708 0.5441 0.3694);fill-opacity:1;"/>
<path opacity="0.2" d="M244.486 233.892C252.628 246.98 267.247 277.055 260.016 290.167L264.816 294.906C264.816 294.906 276.944 281.466 257.647 251.84C253.151 244.95 248.691 238.996 244.486 233.892Z" fill="#EFBF9A" style="fill:#EFBF9A;fill:color(display-p3 0.9373 0.7490 0.6039);fill-opacity:1;"/>
</g>
<defs>
<linearGradient id="paint0_linear_3814_9523" x1="105.5" y1="255.681" x2="76.5" y2="280.681" gradientUnits="userSpaceOnUse">
<stop stop-color="#EFBF9A" style="stop-color:#EFBF9A;stop-color:color(display-p3 0.9375 0.7472 0.6055);stop-opacity:1;"/>
<stop offset="1" stop-color="#EFBF9A" stop-opacity="0" style="stop-color:none;stop-opacity:0;"/>
</linearGradient>
<linearGradient id="paint1_linear_3814_9523" x1="294.5" y1="288.181" x2="300.5" y2="324.681" gradientUnits="userSpaceOnUse">
<stop stop-color="#EFBF9A" style="stop-color:#EFBF9A;stop-color:color(display-p3 0.9373 0.7490 0.6039);stop-opacity:1;"/>
<stop offset="1" stop-color="#EFBF9A" stop-opacity="0" style="stop-color:none;stop-opacity:0;"/>
</linearGradient>
<clipPath id="clip0_3814_9523">
<rect width="98.8803" height="165.744" fill="white" style="fill:white;fill-opacity:1;" transform="translate(61 135.181)"/>
</clipPath>
<clipPath id="clip1_3814_9523">
<rect x="143" y="112.181" width="84" height="84" rx="42" fill="white" style="fill:white;fill-opacity:1;"/>
</clipPath>
<clipPath id="clip2_3814_9523">
<rect width="228" height="237.12" fill="white" style="fill:white;fill-opacity:1;" transform="matrix(-1 8.74228e-08 8.74228e-08 1 299 112)"/>
</clipPath>
<clipPath id="clip3_3814_9523">
<rect width="101.71" height="125.515" fill="white" style="fill:white;fill-opacity:1;" transform="translate(227 204.181)"/>
</clipPath>
</defs>
</svg>
