<svg width="375" height="342" viewBox="0 0 375 342" fill="none" xmlns="http://www.w3.org/2000/svg">
<path d="M105.937 164.754C157.502 154.269 165.618 140.924 191.878 115.903C210.976 97.705 243.011 89.1947 279.013 111.732C314.225 133.775 319 175.477 319 207.051C319 250.687 282.594 286.881 230.074 273.775C169.456 258.648 142.939 264.243 111.308 273.775C79.6769 283.307 27.1573 284.499 17.6083 241.009C8.05922 197.52 41.4809 177.86 105.937 164.754Z" fill="#EBF3FC" style="fill:#EBF3FC;fill:color(display-p3 0.9216 0.9529 0.9882);fill-opacity:1;"/>
<g clip-path="url(#clip0_5669_7561)">
<path d="M140.069 210.358C140.069 210.712 140.246 211.066 140.246 211.42C140.069 211.066 140.069 210.535 140.069 210.358Z" fill="#EFBF9A" style="fill:#EFBF9A;fill:color(display-p3 0.9375 0.7472 0.6055);fill-opacity:1;"/>
<path d="M140.069 210.358C139.892 209.12 139.892 209.651 140.069 210.358V210.358Z" fill="#EFBF9A" style="fill:#EFBF9A;fill:color(display-p3 0.9375 0.7472 0.6055);fill-opacity:1;"/>
<path d="M117.604 148.094C118.666 147.033 122.734 139.957 122.734 139.957C122.734 139.957 120.435 136.95 118.843 135.712C116.366 137.481 114.067 142.964 112.475 147.21L114.42 148.094C114.42 148.094 116.366 149.332 117.604 148.094Z" fill="#F2C3A0" style="fill:#F2C3A0;fill:color(display-p3 0.9490 0.7647 0.6275);fill-opacity:1;"/>
<path d="M135.647 262.717C130.694 262.717 126.802 258.118 126.802 252.458V195.854C122.026 198.33 117.781 200.983 117.781 200.983V172.858C117.781 172.858 124.326 163.129 126.802 155.169V144.91C126.095 141.372 124.503 137.834 121.849 135.712C120.965 135.004 119.904 135.004 119.019 135.712C120.788 136.95 122.911 140.134 122.911 140.134C122.911 140.134 118.665 147.033 117.604 148.094C116.543 149.155 114.42 148.094 114.42 148.094L112.474 147.21C111.413 150.04 111.767 149.509 111.413 150.04C107.698 157.823 99.9153 156.761 99.3847 165.429C98.6771 176.042 87.3563 194.085 90.0096 203.283C92.486 211.95 90.7172 221.149 90.5403 229.993C90.5403 232.469 88.5945 235.83 88.7714 237.599C84.5261 242.552 61 257.234 61 257.234L88.5945 300.925C88.5945 300.925 116.366 279.699 129.632 277.222C149.798 273.154 154.751 267.139 159.88 262.717H135.647Z" fill="url(#paint0_linear_5669_7561)" style=""/>
</g>
<rect x="128.181" y="77" width="113.188" height="217.551" rx="14.065" fill="white" style="fill:white;fill-opacity:1;"/>
<rect x="128.181" y="77" width="113.188" height="217.551" rx="14.065" stroke="#2772C7" style="stroke:#2772C7;stroke:color(display-p3 0.1529 0.4471 0.7804);stroke-opacity:1;" stroke-width="4"/>
<circle cx="184.87" cy="271.5" r="9.5" transform="rotate(90 184.87 271.5)" fill="white" style="fill:white;fill-opacity:1;"/>
<g clip-path="url(#clip1_5669_7561)">
<rect x="143" y="112.181" width="84" height="84" rx="42" fill="#EBF3FC" style="fill:#EBF3FC;fill:color(display-p3 0.9216 0.9529 0.9882);fill-opacity:1;"/>
<g clip-path="url(#clip2_5669_7561)">
<path d="M158.688 198.116L168.65 248.718H201.575L211.537 198.116C212.747 191.825 208.365 187.409 198.394 184.867C188.946 182.334 178.984 182.448 169.597 185.196C160.44 187.93 156.804 192.237 158.688 198.116Z" fill="#FF9526" style="fill:#FF9526;fill:color(display-p3 1.0000 0.5843 0.1490);fill-opacity:1;"/>
<path d="M193.925 177.921C193.987 177.562 193.962 177.194 193.852 176.846C193.742 176.499 193.55 176.183 193.292 175.925C193.035 175.668 192.719 175.476 192.372 175.366C192.024 175.255 191.655 175.23 191.296 175.293C191.296 175.293 189.502 176.214 185.973 176.846C182.445 177.479 178.508 175.293 178.508 175.293C178.149 175.23 177.78 175.255 177.433 175.366C177.085 175.476 176.769 175.668 176.512 175.925C176.254 176.183 176.062 176.499 175.952 176.846C175.842 177.194 175.817 177.562 175.879 177.921V206.535C175.817 206.894 175.842 207.262 175.952 207.61C176.062 207.957 176.254 208.273 176.512 208.531C176.769 208.788 177.085 208.98 177.433 209.09C177.78 209.201 178.149 209.225 178.508 209.163H191.296C191.655 209.225 192.024 209.201 192.372 209.09C192.719 208.98 193.035 208.788 193.292 208.531C193.55 208.273 193.742 207.957 193.852 207.61C193.962 207.262 193.987 206.894 193.925 206.535V177.921Z" fill="#FF9526" style="fill:#FF9526;fill:color(display-p3 1.0000 0.5843 0.1490);fill-opacity:1;"/>
<path d="M205.689 205.516L226.968 220.079L205.11 253.187L213.535 258.208L236.549 223.417C240.116 215.873 238.425 209.704 231.476 204.911L206.267 188.062L205.689 205.516Z" fill="#FF9526" style="fill:#FF9526;fill:color(display-p3 1.0000 0.5843 0.1490);fill-opacity:1;"/>
<path d="M139.078 236.376C137.106 241.283 137.856 245.927 141.325 250.308L160.62 264.766L164.918 256.209L150.329 243.066L165.049 211.68L158.754 193.279L139.078 236.376Z" fill="#FF9526" style="fill:#FF9526;fill:color(display-p3 1.0000 0.5843 0.1490);fill-opacity:1;"/>
<path d="M184.645 173.943C188.446 173.946 192.131 172.527 195.071 169.925C198.012 167.323 200.026 163.701 200.77 159.676C201.515 155.65 200.944 151.47 199.155 147.849C197.365 144.227 194.469 141.387 190.958 139.813C187.447 138.239 183.54 138.029 179.901 139.218C176.263 140.407 173.119 142.921 171.005 146.333C168.891 149.744 167.938 153.842 168.308 157.928C168.678 162.013 170.349 165.834 173.035 168.738C174.538 170.416 176.344 171.744 178.341 172.639C180.338 173.534 182.483 173.978 184.645 173.943Z" fill="#F8CEA7" style="fill:#F8CEA7;fill:color(display-p3 0.9708 0.8088 0.6553);fill-opacity:1;"/>
<path d="M191.188 151.874C195.82 150.674 198.116 152.274 200.392 152.775C201.58 151.574 204.697 148.423 202.322 142.421C199.947 136.419 194.603 135.369 192.524 136.719C192.227 132.968 185.054 129.526 177.976 130.868C170.85 132.218 166.842 139.17 168.178 141.821C158.87 142.448 163.873 154.875 169.069 155.776C169.365 154.275 168.326 149.023 173.671 149.324C176.668 149.492 185.398 153.375 191.188 151.874Z" fill="black" style="fill:black;fill-opacity:1;"/>
</g>
</g>
<path d="M227.996 145.21C226.674 139.161 224.075 133.464 220.374 128.5C216.673 123.535 211.955 119.418 206.535 116.424C201.115 113.43 195.119 111.627 188.946 111.137C182.774 110.646 176.567 111.479 170.743 113.58C164.918 115.68 159.609 119 155.17 123.318C150.731 127.635 147.266 132.85 145.004 138.615C142.743 144.379 141.739 150.56 142.058 156.743C142.377 162.927 144.013 168.971 146.856 174.472L149.354 173.181C146.695 168.036 145.165 162.382 144.866 156.598C144.568 150.814 145.507 145.033 147.622 139.642C149.737 134.25 152.979 129.372 157.131 125.334C161.283 121.295 166.249 118.19 171.697 116.225C177.145 114.26 182.95 113.481 188.723 113.94C194.497 114.399 200.106 116.085 205.175 118.886C210.245 121.687 214.658 125.537 218.12 130.181C221.582 134.824 224.012 140.153 225.249 145.811L227.996 145.21Z" fill="#2772C7" style="fill:#2772C7;fill:color(display-p3 0.1529 0.4471 0.7804);fill-opacity:1;"/>
<g clip-path="url(#clip3_5669_7561)">
<path d="M242.384 230.478C242.384 230.478 233.586 231.219 233.27 233.552C232.967 235.885 233.635 240.017 241.947 240.819H250.55C250.55 240.819 247.974 233.673 248.096 233.43C248.229 233.187 242.384 230.478 242.384 230.478Z" fill="#EFBF9A" style="fill:#EFBF9A;fill:color(display-p3 0.9373 0.7490 0.6039);fill-opacity:1;"/>
<path d="M228.251 265.365C227.06 265.997 226.647 267.504 227.315 268.671C231.362 275.658 247.475 303.425 248.921 305.673C250.586 308.261 254.645 314.349 268.121 317.496C281.597 320.631 287.139 329.684 287.139 329.684H328.71C328.71 329.684 318.928 314.167 310.798 273.92C310.798 273.92 304.516 240.491 292.704 241.609C292.704 241.609 285.498 234.038 278.486 235.521C278.486 235.521 265.192 227.585 257.622 227.585L239.431 206.077C237.632 203.95 234.449 203.537 232.237 205.226C231.532 205.773 230.985 206.49 230.839 207.438C230.28 210.95 234.898 219.82 242.286 230.526C249.675 241.232 267.951 275.22 260.016 290.179C260.016 290.179 251.886 284.091 244.875 274.297C238.993 266.094 232.079 263.336 228.251 265.365Z" fill="url(#paint1_linear_5669_7561)" style=""/>
<path d="M257.683 227.585C260.101 229.651 262.361 231.887 264.488 234.245C266.615 236.553 268.656 239.093 270.503 241.657C272.204 244.015 274.197 247.186 275.473 249.823C277.199 253.311 277.964 255.899 278.475 258.876L278.426 258.888C277.77 255.802 276.555 252.849 275.096 250.03C274.088 248.049 272.107 244.768 270.066 241.985C268.231 239.409 266.238 236.942 264.172 234.536C262.216 232.288 259.773 229.651 257.659 227.634L257.683 227.585Z" fill="#E4A97B" style="fill:#E4A97B;fill:color(display-p3 0.8958 0.6619 0.4815);fill-opacity:1;"/>
<path d="M278.366 235.459C280.334 236.468 282.084 237.866 283.627 239.445C286.532 242.374 288.925 246.396 290.116 250.929C290.59 252.934 290.906 254.295 290.955 257.478H290.894C290.712 255.303 290.311 253.14 289.691 251.05C288.354 246.7 286.252 242.981 283.299 239.737C281.914 238.218 280.091 236.577 278.329 235.496L278.366 235.459Z" fill="#E4A97B" style="fill:#E4A97B;fill:color(display-p3 0.8958 0.6619 0.4815);fill-opacity:1;"/>
<path d="M292.559 241.463C294.296 242.775 296.046 245.096 296.897 246.664C298.865 250.042 299.801 253.639 299.959 257.479L299.898 257.491C299.157 253.214 298.428 250.783 296.435 246.919C295.779 245.619 294.102 243.067 292.522 241.499L292.559 241.463Z" fill="#E4A97B" style="fill:#E4A97B;fill:color(display-p3 0.8958 0.6619 0.4815);fill-opacity:1;"/>
<path d="M236.637 273.969C237.001 272.098 234.826 269.132 232.845 266.897C231.618 265.499 229.674 264.977 227.96 265.56C227 266.265 226.709 267.614 227.328 268.683C228.422 270.554 230.378 273.932 232.687 277.918C234.413 277.031 236.296 275.694 236.637 273.969Z" fill="#E4A97B" style="fill:#E4A97B;fill:color(display-p3 0.8958 0.6619 0.4815);fill-opacity:1;"/>
<path d="M238.386 214.51C239.431 214.304 244.207 212.712 243.915 211.849L239.213 206.296C238.277 205.19 236.977 204.546 235.628 204.424C235.616 204.424 235.616 204.424 235.603 204.424C235.567 204.424 235.482 204.412 235.36 204.412C234.729 204.412 233.173 204.594 232.833 206.296C232.505 207.985 235.287 212.08 236.515 213.781C236.94 214.377 237.681 214.656 238.386 214.51Z" fill="#E4A97B" style="fill:#E4A97B;fill:color(display-p3 0.8958 0.6619 0.4815);fill-opacity:1;"/>
<path opacity="0.2" d="M244.486 233.892C252.628 246.98 267.247 277.055 260.016 290.167L264.816 294.906C264.816 294.906 276.944 281.466 257.647 251.84C253.151 244.95 248.691 238.996 244.486 233.892Z" fill="#EFBF9A" style="fill:#EFBF9A;fill:color(display-p3 0.9373 0.7490 0.6039);fill-opacity:1;"/>
</g>
<defs>
<linearGradient id="paint0_linear_5669_7561" x1="105.5" y1="255.681" x2="76.5" y2="280.681" gradientUnits="userSpaceOnUse">
<stop stop-color="#EFBF9A" style="stop-color:#EFBF9A;stop-color:color(display-p3 0.9375 0.7472 0.6055);stop-opacity:1;"/>
<stop offset="1" stop-color="#EFBF9A" stop-opacity="0" style="stop-color:none;stop-opacity:0;"/>
</linearGradient>
<linearGradient id="paint1_linear_5669_7561" x1="294.5" y1="288.181" x2="300.5" y2="324.681" gradientUnits="userSpaceOnUse">
<stop stop-color="#EFBF9A" style="stop-color:#EFBF9A;stop-color:color(display-p3 0.9373 0.7490 0.6039);stop-opacity:1;"/>
<stop offset="1" stop-color="#EFBF9A" stop-opacity="0" style="stop-color:none;stop-opacity:0;"/>
</linearGradient>
<clipPath id="clip0_5669_7561">
<rect width="98.8803" height="165.744" fill="white" style="fill:white;fill-opacity:1;" transform="translate(61 135.181)"/>
</clipPath>
<clipPath id="clip1_5669_7561">
<rect x="143" y="112.181" width="84" height="84" rx="42" fill="white" style="fill:white;fill-opacity:1;"/>
</clipPath>
<clipPath id="clip2_5669_7561">
<rect width="100.35" height="327.297" fill="white" style="fill:white;fill-opacity:1;" transform="translate(138 124)"/>
</clipPath>
<clipPath id="clip3_5669_7561">
<rect width="101.71" height="125.515" fill="white" style="fill:white;fill-opacity:1;" transform="translate(227 204.181)"/>
</clipPath>
</defs>
</svg>
